<svg width="47.816mm" height="8.9297mm" version="1.1" viewBox="0 0 47.816 8.9297" xmlns="http://www.w3.org/2000/svg">
 <g transform="translate(-38.278 -64.77)">
  <g stroke-width=".26458" aria-label="Retror">
   <path d="m80.927 69.772h2.2428q0.44442 0 0.75447-0.27905 0.31006-0.27905 0.31006-0.78548 0-0.37207-0.32556-0.66662-0.32039-0.29456-0.73897-0.29456h-3.1936v5.581h-0.37207v-5.9531h3.5657q0.57361 0 1.0025 0.40308 0.43408 0.40308 0.43408 0.93017 0 0.65629-0.41858 1.049-0.41858 0.38757-1.018 0.38757h-2.2428zm0 0.74414h2.2428q0.74414 0 1.2764-0.50643 0.53227-0.50643 0.53227-1.3022 0-0.67696-0.5426-1.1886-0.5426-0.51676-1.2661-0.51676h-3.9377v6.3252h-0.37207v-6.6972h4.3098q0.8785 0 1.5296 0.62528 0.65112 0.62012 0.65112 1.4521 0 0.93017-0.64595 1.5555-0.64079 0.62528-1.5348 0.62528h-2.2428zm0 0.74414h2.2428q0.68729 0 1.2712-0.33073 0.58394-0.33073 0.93017-0.91984 0.3514-0.58911 0.3514-1.3022 0-0.64595-0.34623-1.2092-0.34623-0.56844-0.94051-0.90433-0.58911-0.3359-1.2661-0.3359h-4.6819v7.0693h-0.37207v-7.4414h5.0539q0.58394 0 1.1214 0.23254 0.5426 0.22738 0.93534 0.60978 0.39274 0.37724 0.63045 0.89917 0.23771 0.52193 0.23771 1.08 0 0.90434-0.41341 1.5813-0.41341 0.67179-1.111 1.0232l0.78031 2.0154h-0.39791l-0.73897-1.8655q-0.13953 0.04651-0.32556 0.09302l0.69763 1.7725h-0.39791l-0.68213-1.7105q-0.1602 0.0155-0.3359 0.0155l0.65629 1.695h-0.39274l-0.65112-1.695h-0.3359l0.62528 1.695h-0.39274l-0.63045-1.695h-1.1214zm-0.2067 2.067h-0.37207v-5.209h2.8215q0.28939 0 0.49092 0.1757 0.20154 0.17053 0.20154 0.41341 0 0.69246-0.69246 0.69246h-2.2428v-0.37207h2.2428q0.32039 0 0.32039-0.32039 0-0.08785-0.09819-0.14986-0.09302-0.06718-0.22221-0.06718h-2.4495zm-8.5834-4.7697q-0.43408 0.43408-0.43408 1.049t0.43408 1.0542q0.43925 0.43408 1.0542 0.43408 0.61495 0 1.049-0.43408 0.43925-0.43925 0.43925-1.0542t-0.43925-1.049q-0.43408-0.43925-1.049-0.43925-0.61495 0-1.0542 0.43925zm-0.26355 2.3668q-0.5426-0.54777-0.5426-1.3177t0.5426-1.3126q0.54777-0.54777 1.3177-0.54777 0.76998 0 1.3126 0.54777 0.54777 0.5426 0.54777 1.3126t-0.54777 1.3177q-0.5426 0.5426-1.3126 0.5426-0.76998 0-1.3177-0.5426zm-0.26355-2.8939q-0.65112 0.65629-0.65112 1.5761t0.65112 1.5761q0.65629 0.65629 1.5813 0.65629t1.5761-0.65629q0.65629-0.65629 0.65629-1.5761t-0.65629-1.5761q-0.65112-0.65629-1.5761-0.65629t-1.5813 0.65629zm-0.67696 2.8835q-0.34623-0.59944-0.34623-1.3074t0.34623-1.3074q0.3514-0.59944 0.95084-0.94568 0.59944-0.3514 1.3074-0.3514t1.3074 0.3514q0.59944 0.34623 0.94568 0.94568 0.3514 0.59944 0.3514 1.3074t-0.3514 1.3074q-0.34623 0.59944-0.94568 0.95084-0.59944 0.34623-1.3074 0.34623t-1.3074-0.34623q-0.59944-0.3514-0.95084-0.95084zm-0.48576-2.4598q-0.23254 0.54777-0.23254 1.1524t0.23254 1.1575q0.23771 0.54777 0.63562 0.95084 0.40308 0.39791 0.95084 0.63562 0.55294 0.23254 1.1575 0.23254t1.1524-0.23254q0.55294-0.23771 0.95084-0.63562 0.40308-0.40308 0.63562-0.95084 0.23771-0.55294 0.23771-1.1575t-0.23771-1.1524q-0.23254-0.55294-0.63562-0.95084-0.39791-0.40308-0.95084-0.63562-0.54777-0.23771-1.1524-0.23771t-1.1575 0.23771q-0.54777 0.23254-0.95084 0.63562-0.39791 0.39791-0.63562 0.95084zm-0.34106 2.4546q-0.26355-0.62012-0.26355-1.3022t0.26355-1.3022q0.26872-0.62012 0.71313-1.0645 0.44958-0.44958 1.0697-0.71313 0.62012-0.26872 1.3022-0.26872t1.3022 0.26872q0.62012 0.26355 1.0645 0.71313 0.44958 0.44442 0.71313 1.0645 0.26872 0.62012 0.26872 1.3022t-0.26872 1.3022q-0.26355 0.62012-0.71313 1.0697-0.44442 0.44442-1.0645 0.71313-0.62012 0.26355-1.3022 0.26355t-1.3022-0.26355q-0.62012-0.26872-1.0697-0.71313-0.44442-0.44958-0.71313-1.0697zm-0.34106-2.744q-0.29455 0.6873-0.29455 1.4418 0 0.75447 0.29455 1.4469 0.29456 0.68729 0.79065 1.1886 0.50126 0.49609 1.1886 0.79065 0.69246 0.29455 1.4469 0.29455 0.75447 0 1.4418-0.29455 0.69246-0.29456 1.1886-0.79065 0.50126-0.50126 0.79581-1.1886 0.29456-0.69246 0.29456-1.4469 0-0.75447-0.29456-1.4418-0.29455-0.69246-0.79581-1.1886-0.49609-0.50126-1.1886-0.79582-0.6873-0.29455-1.4418-0.29455-0.75447 0-1.4469 0.29455-0.68729 0.29456-1.1886 0.79582-0.49609 0.49609-0.79065 1.1886zm-0.34106 3.0334q-0.32556-0.75964-0.32556-1.5916t0.32556-1.5865q0.32556-0.75964 0.87333-1.3074 0.54777-0.54777 1.3022-0.87333 0.75964-0.32556 1.5916-0.32556t1.5865 0.32556q0.75964 0.32556 1.3074 0.87333 0.54777 0.54777 0.87333 1.3074 0.32556 0.75447 0.32556 1.5865t-0.32556 1.5916q-0.32556 0.75447-0.87333 1.3022-0.54777 0.54777-1.3074 0.87333-0.75447 0.32556-1.5865 0.32556t-1.5916-0.32556q-0.75447-0.32556-1.3022-0.87333-0.54777-0.54777-0.87333-1.3022zm-6.1185-1.4263h2.2428q0.44442 0 0.75447-0.27905 0.31006-0.27905 0.31006-0.78548 0-0.37207-0.32556-0.66662-0.32039-0.29456-0.73897-0.29456h-3.1936v5.581h-0.37207v-5.9531h3.5657q0.57361 0 1.0025 0.40308 0.43408 0.40308 0.43408 0.93017 0 0.65629-0.41858 1.049-0.41858 0.38757-1.018 0.38757h-2.2428zm0 0.74414h2.2428q0.74414 0 1.2764-0.50643 0.53226-0.50643 0.53226-1.3022 0-0.67696-0.5426-1.1886-0.5426-0.51676-1.2661-0.51676h-3.9377v6.3252h-0.37207v-6.6972h4.3098q0.8785 0 1.5296 0.62528 0.65112 0.62012 0.65112 1.4521 0 0.93017-0.64595 1.5555-0.64079 0.62528-1.5348 0.62528h-2.2428zm0 0.74414h2.2428q0.68729 0 1.2712-0.33073 0.58394-0.33073 0.93017-0.91984 0.3514-0.58911 0.3514-1.3022 0-0.64595-0.34623-1.2092-0.34623-0.56844-0.94051-0.90433-0.58911-0.3359-1.2661-0.3359h-4.6819v7.0693h-0.37207v-7.4414h5.0539q0.58394 0 1.1214 0.23254 0.5426 0.22738 0.93534 0.60978 0.39274 0.37724 0.63045 0.89917t0.23771 1.08q0 0.90434-0.41341 1.5813-0.41341 0.67179-1.111 1.0232l0.78031 2.0154h-0.39791l-0.73897-1.8655q-0.13953 0.04651-0.32556 0.09302l0.69763 1.7725h-0.39791l-0.68213-1.7105q-0.1602 0.0155-0.3359 0.0155l0.65629 1.695h-0.39274l-0.65112-1.695h-0.3359l0.62528 1.695h-0.39274l-0.63045-1.695h-1.1214zm-0.2067 2.067h-0.37207v-5.209h2.8215q0.28939 0 0.49092 0.1757 0.20154 0.17053 0.20154 0.41341 0 0.69246-0.69246 0.69246h-2.2428v-0.37207h2.2428q0.32039 0 0.32039-0.32039 0-0.08785-0.09819-0.14986-0.09302-0.06718-0.22221-0.06718h-2.4494zm-7.5137-5.3795h0.37207v5.3795h-0.37207zm-1.4883-1.6898v-0.37207h5.581v0.37207zm0 0.74414v-0.37207h5.581v0.37207zm0 0.74414v-0.37207h5.581v0.37207zm3.7207 0.20154h0.37207v5.3795h-0.37207zm-0.74414 0h0.37207v5.3795h-0.37207zm-0.74414 0h0.37207v5.3795h-0.37207zm-7.2605 5.3795h-0.37207v-7.4414h0.37207zm-0.74414 0h-0.37207v-7.4414h0.37207zm-0.74414 0h-0.37207v-7.4414h0.37207zm2.2324-1.8603h3.5605v0.37207h-3.5605v0.37207h3.5605v0.37207h-3.5605v0.37207h3.5605v0.37207h-3.9326v-7.4414h3.9326v0.37207h-3.5605v0.37207h3.5605v0.37207h-3.5605v0.37207h3.5605v0.37207h-3.5605v0.92501h3.3538v0.37207h-3.3538v0.37207h3.3538v0.37207h-3.3538v0.37207h3.3538v0.37207h-3.3538zm-8.723-2.3978h2.2428q0.5116 0 0.86299-0.33073 0.35657-0.33073 0.35657-0.94051 0-0.44958-0.37207-0.80615-0.37207-0.36173-0.84749-0.36173h-3.1936v6.6972h-0.37207v-7.0693h3.5657q0.63045 0 1.111 0.47025 0.48059 0.46509 0.48059 1.0697 0 0.74414-0.46509 1.1937-0.46509 0.44958-1.1265 0.44958h-2.2428zm0 0.74414h2.2428q0.80615 0 1.3849-0.56327 0.57877-0.56844 0.57877-1.4521 0-0.75964-0.59428-1.3332-0.58911-0.57877-1.3694-0.57877h-3.9377v7.4414h-0.37207v-7.8135h4.3098q0.61495 0 1.1524 0.31522 0.5426 0.31522 0.86299 0.84749 0.32039 0.5271 0.32039 1.1214 0 1.018-0.69246 1.7053-0.68729 0.68213-1.6433 0.68213h-2.2428zm0 0.74414h2.2428q0.72347 0 1.3436-0.35657t0.99218-0.99218q0.37207-0.64079 0.37207-1.4108 0-0.69763-0.37207-1.3074-0.3669-0.61495-0.99218-0.98185-0.62528-0.3669-1.3436-0.3669h-4.6819v8.1855h-0.37207v-8.5576h5.0539q0.81132 0 1.5244 0.41858 0.71313 0.41341 1.1317 1.1162 0.42375 0.69763 0.42375 1.4934 0 0.91984-0.39791 1.6175-0.39274 0.69763-1.0697 1.0904l0.96118 2.8215h-0.39274l-0.91984-2.6458q-0.2067 0.08268-0.31522 0.11369l0.86299 2.5321h-0.39274l-0.84232-2.4443q-0.04651 0.01033-0.33073 0.03617l0.80098 2.4081h-0.39274l-0.79065-2.3978h-0.3359l0.75447 2.3978h-0.39274l-0.75964-2.3978h-1.3694zm-0.2067 2.7698h-0.37207v-6.3252h2.8215q0.34623 0 0.59428 0.23771 0.25321 0.23254 0.25321 0.5581 0 0.89917-0.84749 0.89917h-2.2428v-0.37207h2.2428q0.22221 0 0.34623-0.11369 0.12919-0.11886 0.12919-0.41341 0-0.18087-0.13953-0.29972-0.13436-0.12402-0.3359-0.12402h-2.4495z" stroke-width=".26458"/>
  </g>
 </g>
</svg>
